<?xml version="1.0" encoding="utf-8"?>
<!-- Generator: Adobe Illustrator 16.0.0, SVG Export Plug-In . SVG Version: 6.00 Build 0)  -->
<!DOCTYPE svg PUBLIC "-//W3C//DTD SVG 1.1//EN" "http://www.w3.org/Graphics/SVG/1.1/DTD/svg11.dtd">
<svg version="1.1" id="圖層_1" xmlns="http://www.w3.org/2000/svg" xmlns:xlink="http://www.w3.org/1999/xlink" x="0px" y="0px"
	 width="48px" height="48px" viewBox="0 0 48 48" enable-background="new 0 0 48 48" xml:space="preserve">
<g>
	<path fill-rule="evenodd" clip-rule="evenodd" fill="#38B7FF" d="M46.364,22.482c0.006,0.908-0.313,1.661-0.937,2.334
		c-0.797,0.859-1.518,1.789-2.294,2.668c-0.429,0.485-0.88,0.95-1.289,1.453c-0.317,0.391-0.3,0.813-0.139,1.25
		c0.153,0.416,0.358,0.807,0.334,1.279c-0.031,0.612-0.29,0.948-1.012,1.186c-0.555,0.182-1.135,0.013-1.443-0.421
		c-0.333-0.469-0.303-0.439-0.714,0.005c-0.664,0.717-1.364,1.401-2.068,2.08c-1.352,1.304-2.75,2.557-4.175,3.781
		c-1.065,0.915-2.087,1.881-3.148,2.8c-0.529,0.457-1.003,0.981-1.607,1.352c-0.935,0.573-1.919,0.757-2.978,0.423
		c-2.403-0.76-4.508-2.007-6.193-3.896c-1.472-1.649-2.437-3.584-2.906-5.736c-0.243-1.114,0.269-2.049,1.005-2.871
		c0.881-0.982,1.746-1.979,2.605-2.983c0.597-0.696,1.196-1.393,1.813-2.071c1.128-1.241,2.273-2.465,3.433-3.675
		c0.571-0.597,1.177-1.162,1.793-1.712c0.307-0.275,0.296-0.484-0.024-0.698c-0.425-0.283-0.619-0.669-0.533-1.172
		c0.146-0.866,0.853-1.743,1.948-1.118c0.849,0.485,1.427,0.434,2.251-0.279c1.232-1.065,2.494-2.101,3.673-3.231
		c1.063-1.019,2.366-1.079,3.713-0.77c1.5,0.345,2.772,1.135,3.968,2.079c1.39,1.098,2.586,2.37,3.529,3.868
		C45.752,19.652,46.337,20.974,46.364,22.482z M35.421,29.86c0.115-0.027,0.309-0.048,0.48-0.121c0.79-0.336,1.484-0.84,2.203-1.3
		c0.228-0.146,0.205-0.391,0.123-0.625c-0.221-0.631-0.686-1.063-1.195-1.453c-0.481-0.368-0.983-0.491-1.596-0.277
		c-0.818,0.284-1.666,0.48-2.501,0.716c-0.156,0.044-0.333,0.125-0.424-0.081c-0.104-0.232,0.123-0.256,0.25-0.336
		c0.022-0.015,0.051-0.019,0.076-0.029c0.899-0.378,1.798-0.761,2.699-1.134c0.307-0.126,0.532-0.323,0.313-0.643
		c-0.682-0.996-1.423-1.606-2.644-0.976c-0.132,0.068-0.257,0.161-0.415,0.152c-0.152-0.009-0.363,0.072-0.422-0.136
		c-0.052-0.181,0.139-0.245,0.264-0.313c0.345-0.189,0.699-0.36,1.043-0.551c0.117-0.065,0.239-0.145,0.048-0.297
		c-0.851-0.672-1.698-1.349-2.63-1.906c-0.578-0.346-0.938-0.236-1.332,0.336c-0.41,0.594-0.694,1.258-1.07,1.869
		c-0.348,0.566-0.356,0.769,0.115,1.235c0.327,0.324,0.675,0.627,1.003,0.953c1.445,1.435,2.883,2.878,4.334,4.308
		C34.473,29.576,34.849,29.85,35.421,29.86z M25.513,41.045c0.648,0.005,1.084-0.201,1.348-0.69c0.222-0.41,0.088-0.697-0.362-0.769
		c-0.329-0.052-0.624-0.174-0.92-0.313c-1.588-0.747-3.009-1.725-4.165-3.058c-1.074-1.237-1.987-2.57-2.396-4.19
		c-0.087-0.346-0.303-0.445-0.648-0.313c-0.5,0.19-0.857,0.785-0.787,1.346c0.088,0.678,0.286,1.321,0.598,1.933
		c1.137,2.224,2.79,3.956,4.963,5.182C23.909,40.604,24.713,40.975,25.513,41.045z M33.262,16.281
		c1.438-0.035,2.804-0.198,4.155-0.476c0.181-0.037,0.463,0.013,0.522-0.145c0.081-0.215-0.264-0.212-0.35-0.378
		c-0.023-0.045-0.076-0.076-0.116-0.112c-0.784-0.699-1.705-0.913-2.421-0.507C34.352,15.062,33.842,15.682,33.262,16.281z
		 M42.498,19.508c0.252-0.003,0.372-0.058,0.452-0.188c0.075-0.123,0.038-0.227-0.038-0.336c-0.871-1.258-1.869-2.387-3.2-3.18
		c-0.118-0.07-0.301-0.246-0.383-0.13c-0.129,0.181-0.286,0.413-0.161,0.671c0.053,0.107,0.135,0.204,0.22,0.289
		c0.889,0.895,1.781,1.785,2.669,2.681C42.189,19.447,42.332,19.529,42.498,19.508z M42.309,25.295
		c2.495-1.699,2.244-3.273,0.576-4.609C42.694,22.208,42.505,23.722,42.309,25.295z M37.23,30.533
		c-1.638,0.727-2.796,1.907-3.94,3.104c-0.184,0.191-0.179,0.413,0.046,0.604c0.218,0.186,0.391,0.109,0.565-0.064
		c0.433-0.431,0.877-0.848,1.326-1.26C35.974,32.231,36.716,31.534,37.23,30.533z M28.055,21.439
		c-0.379,0.128-0.655,0.353-0.931,0.564c-1.063,0.815-1.828,1.923-2.775,2.854c-0.118,0.115-0.104,0.235-0.019,0.365
		c0.189,0.286,0.396,0.316,0.673,0.049c0.509-0.49,1.021-0.979,1.495-1.501C27.123,23.083,27.693,22.35,28.055,21.439z
		 M28.809,38.934c0.161-0.016,0.215-0.124,0.291-0.195c1.063-1.005,2.119-2.019,3.19-3.016c0.219-0.203,0.367-0.384,0.122-0.639
		c-0.239-0.248-0.461-0.13-0.665,0.074c-0.882,0.884-1.768,1.764-2.647,2.649C28.794,38.115,28.646,38.474,28.809,38.934z
		 M23.653,26.459c-0.052-0.159-0.112-0.27-0.253-0.33c-0.164-0.071-0.298-0.023-0.407,0.089c-0.255,0.262-0.497,0.536-0.75,0.801
		c-0.757,0.795-1.518,1.587-2.274,2.383c-0.099,0.104-0.248,0.226-0.117,0.377c0.106,0.123,0.274,0.094,0.415,0.021
		c0.071-0.037,0.143-0.08,0.203-0.131c1.076-0.895,2.08-1.862,2.995-2.922C23.542,26.656,23.597,26.546,23.653,26.459z"/>
	<path fill-rule="evenodd" clip-rule="evenodd" fill="#38B7FF" d="M11.571,0.011c2.405,0,4.811,0.014,7.215-0.011
		c0.492-0.005,0.912,0.13,1.295,0.385c0.998,0.663,1.559,1.592,1.56,2.807c0.007,4.525,0.023,9.051-0.009,13.576
		c-0.012,1.646-0.785,2.876-2.611,3.159c-0.312,0.048-0.617,0.068-0.926,0.068c-1.522,0.002-3.045,0-4.566,0
		c-0.653,0-0.773,0.119-0.773,0.787c-0.002,2.786-0.002,5.572-0.002,8.358c0,0.054,0.002,0.108,0.001,0.162
		c-0.011,0.995-0.466,1.106-1.295,1.019c-0.79-0.084-0.821-0.245-0.908-1.077c-0.06-0.571,0.085-1.132,0.083-1.701
		c-0.006-2.174-0.002-4.349-0.005-6.523c0-0.16-0.009-0.317-0.048-0.48c-0.094-0.396-0.314-0.551-0.72-0.548
		c-1.685,0.012-3.371,0.031-5.056-0.006c-0.857-0.019-1.67-0.229-2.31-0.895c-0.558-0.581-0.827-1.266-0.829-2.046
		C1.655,12.735,1.669,8.428,1.649,4.12C1.646,3.516,1.587,2.917,1.737,2.322c0.276-1.091,1.057-1.74,1.974-2.27
		c0.137-0.079,0.294-0.039,0.44-0.039C6.624,0.011,9.098,0.011,11.571,0.011z M11.669,2.378c0,0.003,0,0.006,0,0.01
		c-0.951,0-1.902,0.001-2.853,0C7.594,2.386,6.371,2.375,5.148,2.381C4.46,2.384,4.135,2.668,4.045,3.32
		C4.024,3.467,4.028,3.618,4.028,3.767C4.03,7.952,4.033,12.136,4.036,16.32c0,0.162,0.011,0.321,0.047,0.483
		c0.164,0.728,0.26,0.812,1.01,0.812c4.387-0.001,8.772,0.015,13.158-0.06c0.736-0.012,0.937-0.18,1.017-0.919
		c0.015-0.135,0.007-0.271,0.007-0.407c0.002-4.185,0.002-8.369,0.004-12.553c0-0.973-0.319-1.296-1.292-1.297
		C15.881,2.377,13.774,2.378,11.669,2.378z"/>
	<path fill-rule="evenodd" clip-rule="evenodd" fill="#38B7FF" d="M15.793,47.975c-0.339,0.104-0.6-0.122-0.872-0.397
		c-1.583-1.598-3.162-3.2-4.777-4.765c-0.742-0.719-0.918-1.623-0.18-2.412c0.48-0.513,0.937-1.057,1.497-1.479
		c0.765-0.577,1.306-0.526,2.017,0.109c1.689,1.511,3.248,3.156,4.833,4.771c0.774,0.789,0.825,1.533-0.011,2.409
		c-0.496,0.521-1.025,1.009-1.521,1.53C16.513,48.021,16.189,47.961,15.793,47.975z M12.476,40.91
		c-0.289,0.083-0.456,0.302-0.592,0.535c-0.071,0.123-0.008,0.254,0.103,0.363c1.188,1.17,2.38,2.339,3.556,3.522
		c0.247,0.249,0.451,0.314,0.715,0.055c0.284-0.279,0.305-0.477,0.02-0.764c-1.176-1.185-2.359-2.363-3.542-3.541
		C12.661,41.007,12.595,40.909,12.476,40.91z"/>
	<path fill-rule="evenodd" clip-rule="evenodd" fill="#38B7FF" d="M8.746,10.246C8.745,9.009,8.74,7.773,8.749,6.537
		C8.752,6.201,8.633,5.875,8.73,5.527C8.815,5.224,8.986,4.996,9.272,5.01c1.475,0.068,2.967-0.104,4.42,0.208
		c1.383,0.298,2.135,1.344,2.178,2.761c0.038,1.286-0.428,2.276-1.564,2.907c-0.715,0.397-1.504,0.457-2.295,0.352
		c-0.963-0.128-1.354,0.16-1.366,1.133c-0.006,0.431,0.063,0.864,0.115,1.293c0.029,0.246,0.022,0.483-0.03,0.726
		c-0.074,0.346-0.299,0.498-0.623,0.547c-0.066,0.01-0.135,0.007-0.203,0.009c-1.084,0.023-1.178-0.085-1.161-1.155
		C8.761,12.61,8.747,11.428,8.746,10.246z M12.162,9.391c0.212,0,0.444,0.015,0.673-0.003c0.509-0.039,0.857-0.381,1.01-0.966
		c0.129-0.5-0.025-1.027-0.408-1.272c-0.529-0.338-1.118-0.496-1.744-0.43c-0.811,0.085-1.201,0.511-1.125,1.197
		C10.608,8.279,10.668,8.64,10.732,9c0.06,0.33,0.243,0.519,0.601,0.429C11.603,9.361,11.874,9.414,12.162,9.391z"/>
	<path fill-rule="evenodd" clip-rule="evenodd" fill="#38B7FF" d="M17.552,10.534c-0.346,0.025-0.516-0.176-0.537-0.501
		c-0.025-0.388,0.215-0.639,0.564-0.631c0.313,0.007,0.554,0.247,0.563,0.563C18.149,10.317,17.929,10.535,17.552,10.534z"/>
	<path fill-rule="evenodd" clip-rule="evenodd" fill="#38B7FF" d="M6.23,9.933c0.007,0.37-0.173,0.585-0.5,0.599
		c-0.333,0.014-0.55-0.197-0.56-0.544C5.161,9.679,5.413,9.41,5.731,9.427C6.034,9.443,6.247,9.584,6.23,9.933z"/>
</g>
</svg>
