<?xml version="1.0" encoding="utf-8"?>
<!-- Generator: Adobe Illustrator 16.0.0, SVG Export Plug-In . SVG Version: 6.00 Build 0)  -->
<!DOCTYPE svg PUBLIC "-//W3C//DTD SVG 1.1//EN" "http://www.w3.org/Graphics/SVG/1.1/DTD/svg11.dtd">
<svg version="1.1" id="圖層_1" xmlns="http://www.w3.org/2000/svg" xmlns:xlink="http://www.w3.org/1999/xlink" x="0px" y="0px"
	 width="32px" height="32px" viewBox="0 0 32 32" enable-background="new 0 0 32 32" xml:space="preserve">
<path fill="#38B7FF" d="M31.381,2.813c-0.229-0.218-0.634-0.479-1.264-0.479c-0.277,0-0.573,0.052-0.883,0.155l-27.212,9.07
	c-1.566,0.522-1.882,1.436-1.932,1.933c-0.049,0.498,0.082,1.455,1.516,2.273l8.427,4.815v6.44c0,1.815,0.787,2.378,1.254,2.551
	c0.169,0.063,0.351,0.096,0.54,0.096c0.685,0,1.383-0.409,2.075-1.215l3.256-3.799l5.223,2.983c0.634,0.362,1.382,0.427,2.004,0.172
	c0.634-0.257,1.112-0.813,1.316-1.524l6.098-21.341C32.135,3.76,31.682,3.1,31.381,2.813z M10.541,18.867l-8.07-4.612
	c-0.518-0.296-0.644-0.536-0.648-0.587c0.015-0.059,0.185-0.27,0.751-0.458l25.479-8.493L10.541,18.867z M12.581,27.319
	c-0.333,0.39-0.563,0.531-0.672,0.582c-0.053-0.111-0.135-0.368-0.135-0.881v-5.445l3.848,2.198L12.581,27.319z M24.027,25.807
	c-0.055,0.197-0.162,0.335-0.298,0.391c-0.135,0.055-0.311,0.029-0.486-0.071l-11.082-6.333L29.823,5.524L24.027,25.807z"/>
</svg>
