<?xml version="1.0" encoding="utf-8"?>
<!-- Generator: Adobe Illustrator 16.0.0, SVG Export Plug-In . SVG Version: 6.00 Build 0)  -->
<!DOCTYPE svg PUBLIC "-//W3C//DTD SVG 1.1//EN" "http://www.w3.org/Graphics/SVG/1.1/DTD/svg11.dtd">
<svg version="1.1" id="圖層_1" xmlns="http://www.w3.org/2000/svg" xmlns:xlink="http://www.w3.org/1999/xlink" x="0px" y="0px"
	 width="48px" height="48px" viewBox="0 0 48 48" enable-background="new 0 0 48 48" xml:space="preserve">
<g>
	<path fill="#38B7FF" d="M24,18.124c-2.986,0-5.724,1.691-7.067,4.379c-0.249,0.498-0.05,1.096,0.447,1.344
		c0.15,0.051,0.3,0.1,0.449,0.1c0.348,0,0.696-0.199,0.895-0.547c0.996-1.992,3.037-3.235,5.276-3.235s4.28,1.294,5.276,3.235
		c0.149,0.348,0.547,0.547,0.896,0.547c0.149,0,0.299-0.049,0.448-0.1c0.498-0.248,0.697-0.846,0.447-1.344
		C29.773,19.866,26.985,18.124,24,18.124z"/>
	<path fill="#38B7FF" d="M34.352,20.065c-1.891-3.933-5.973-6.521-10.352-6.521c-4.38,0-8.461,2.539-10.353,6.521
		c-0.249,0.497-0.05,1.094,0.448,1.342c0.149,0.051,0.298,0.101,0.448,0.101c0.348,0,0.747-0.199,0.896-0.548
		c1.542-3.284,4.927-5.375,8.561-5.375s6.968,2.091,8.561,5.375c0.149,0.349,0.547,0.548,0.895,0.548c0.15,0,0.3-0.05,0.448-0.101
		C34.401,21.159,34.6,20.563,34.352,20.065z"/>
	<path fill="#38B7FF" d="M24,22.802c-1.544,0-2.937,0.847-3.633,2.19c-0.249,0.497-0.05,1.095,0.448,1.344
		c0.15,0.101,0.298,0.101,0.448,0.101c0.349,0,0.697-0.201,0.896-0.549c0.348-0.696,1.095-1.146,1.891-1.146
		c0.797,0,1.493,0.449,1.892,1.146c0.198,0.348,0.547,0.549,0.896,0.549c0.149,0,0.299-0.051,0.448-0.101
		c0.498-0.249,0.697-0.847,0.448-1.344C26.936,23.648,25.542,22.802,24,22.802z"/>
	<path fill="#38B7FF" d="M40.354,48h-12.92V35.558c0-0.05-0.05-0.15-0.149-0.15h-6.52c-0.05,0-0.149,0.05-0.149,0.15V48H7.744
		c-1.792,0-3.234-1.444-3.234-3.235V18.485c0-0.746,0.249-1.493,0.746-2.09L21.561,1.145C22.158,0.448,23.054,0,24,0l0,0
		c0.945,0,1.841,0.398,2.439,1.145l16.305,15.251c0.497,0.597,0.746,1.344,0.746,2.09v26.279C43.539,46.556,42.096,48,40.354,48z
		 M29.425,46.009h10.929c0.697,0,1.244-0.548,1.244-1.244V18.485c0-0.299-0.1-0.598-0.299-0.797L24.945,2.438
		c-0.199-0.299-0.547-0.447-0.896-0.447l0,0c-0.348,0-0.696,0.148-0.945,0.447L6.799,17.688C6.6,17.888,6.5,18.187,6.5,18.485
		v26.279c0,0.696,0.547,1.244,1.244,1.244h10.93V35.558c0-1.195,0.946-2.141,2.14-2.141h6.52c1.194,0,2.141,0.945,2.141,2.141
		v10.451H29.425z"/>
</g>
</svg>
