<?xml version="1.0" encoding="utf-8"?>
<!-- Generator: Adobe Illustrator 16.0.0, SVG Export Plug-In . SVG Version: 6.00 Build 0)  -->
<!DOCTYPE svg PUBLIC "-//W3C//DTD SVG 1.1//EN" "http://www.w3.org/Graphics/SVG/1.1/DTD/svg11.dtd">
<svg version="1.1" id="圖層_1" xmlns="http://www.w3.org/2000/svg" xmlns:xlink="http://www.w3.org/1999/xlink" x="0px" y="0px"
	 width="32px" height="32px" viewBox="0 0 32 32" enable-background="new 0 0 32 32" xml:space="preserve">
<g>
	<path fill="#38B7FF" d="M10.263,31.961C10.341,32,10.458,32,10.537,32c0.273,0,0.507-0.156,0.664-0.391l12.878-21.463
		c0.156-0.234,0.156-0.546,0-0.781c-0.156-0.234-0.391-0.39-0.664-0.39h-4.916l1.795-8.039c0.038-0.234,0-0.468-0.156-0.663
		C19.98,0.078,19.746,0,19.512,0H8.585C8.156,0,7.805,0.351,7.805,0.78v16c0,0.429,0.352,0.78,0.781,0.78h3.356L9.756,31.103
		C9.717,31.453,9.912,31.805,10.263,31.961z M13.658,16.897c0.039-0.233-0.039-0.468-0.195-0.624C13.307,16.117,13.112,16,12.878,16
		H9.365V1.561h9.171l-1.717,7.844c0,0.078-0.039,0.156,0,0.234c0,0.039,0,0.078,0,0.117c0,0.43,0.352,0.781,0.78,0.781h4.488
		l-10.146,16.78L13.658,16.897z"/>
</g>
</svg>
