<?xml version="1.0" encoding="utf-8"?>
<!-- Generator: Adobe Illustrator 16.0.0, SVG Export Plug-In . SVG Version: 6.00 Build 0)  -->
<!DOCTYPE svg PUBLIC "-//W3C//DTD SVG 1.1//EN" "http://www.w3.org/Graphics/SVG/1.1/DTD/svg11.dtd">
<svg version="1.1" id="圖層_1" xmlns="http://www.w3.org/2000/svg" xmlns:xlink="http://www.w3.org/1999/xlink" x="0px" y="0px"
	 width="32px" height="32px" viewBox="0 0 32 32" enable-background="new 0 0 32 32" xml:space="preserve">
<g>
	<path fill="#38B7FF" d="M16,5.45c-2.628,0-4.766,2.138-4.766,4.765v3.406h-2.72v9.531h14.978v-9.531h-2.727v-3.406
		C20.766,7.588,18.627,5.45,16,5.45z M19.403,13.619h-6.807v-3.404c0-1.877,1.527-3.404,3.404-3.404s3.403,1.527,3.403,3.404V13.619
		z"/>
	<path fill="#38B7FF" d="M30.61,10.235c-1.517-4.019-4.485-7.18-8.358-8.9c-3.797-1.686-8.016-1.778-11.88-0.261
		C2.322,4.235-1.708,13.484,1.39,21.69l1.273-0.48C-0.172,13.696,3.51,5.232,10.87,2.342c3.522-1.383,7.368-1.298,10.829,0.238
		c3.537,1.571,6.25,4.461,7.638,8.136c2.835,7.513-0.847,15.978-8.207,18.868c-5.161,2.027-10.977,0.801-14.937-3.013h4.41v-1.362
		h-6.67V32h1.361v-4.391c2.932,2.799,6.786,4.308,10.717,4.308c1.885,0,3.789-0.348,5.616-1.065
		C29.678,27.691,33.707,18.442,30.61,10.235z"/>
</g>
</svg>
