<?xml version="1.0" encoding="utf-8"?>
<!-- Generator: Adobe Illustrator 16.0.0, SVG Export Plug-In . SVG Version: 6.00 Build 0)  -->
<!DOCTYPE svg PUBLIC "-//W3C//DTD SVG 1.1//EN" "http://www.w3.org/Graphics/SVG/1.1/DTD/svg11.dtd">
<svg version="1.1" id="圖層_1" xmlns="http://www.w3.org/2000/svg" xmlns:xlink="http://www.w3.org/1999/xlink" x="0px" y="0px"
	 width="32px" height="32px" viewBox="0 0 32 32" enable-background="new 0 0 32 32" xml:space="preserve">
<g>
	<path fill="#38B7FF" d="M16,32c8.827,0,16-7.181,16-16S24.827,0,16,0C7.172,0,0,7.181,0,16S7.18,32,16,32z M16,1.623
		c7.927,0,14.378,6.45,14.378,14.377c0,7.928-6.443,14.377-14.378,14.377C8.064,30.377,1.623,23.928,1.623,16
		C1.623,8.073,8.073,1.623,16,1.623z"/>
	<path fill="#38B7FF" d="M11.667,15.83c0.447,0.365,0.949,0.649,1.518,0.836c0.567,0.186,1.144,0.348,1.736,0.479v5.443h-0.105
		c-0.625,0-1.241-0.057-1.866-0.162c-0.624-0.105-1.152-0.234-1.59-0.389c-0.438-0.154-0.82-0.309-1.144-0.455v2.629
		c0.202,0.13,0.47,0.244,0.803,0.365c0.332,0.113,0.714,0.219,1.136,0.309c0.422,0.089,0.868,0.162,1.347,0.211
		s0.949,0.072,1.42,0.072v1.907h1.987v-2.069c0.755-0.129,1.429-0.332,2.028-0.617c0.602-0.283,1.12-0.648,1.551-1.086
		c0.43-0.438,0.762-0.949,0.989-1.541c0.228-0.594,0.349-1.25,0.349-1.973c0-0.9-0.146-1.639-0.43-2.215s-0.666-1.047-1.127-1.412
		c-0.463-0.365-0.99-0.641-1.583-0.835c-0.585-0.195-1.177-0.365-1.785-0.503V9.428c0.812,0.048,1.55,0.162,2.224,0.341
		c0.673,0.179,1.322,0.39,1.955,0.625V7.749c-0.568-0.243-1.209-0.438-1.898-0.592c-0.697-0.154-1.453-0.251-2.28-0.308V4.925
		h-1.987v1.979c-0.689,0.089-1.331,0.276-1.907,0.552c-0.584,0.276-1.079,0.641-1.493,1.088c-0.413,0.446-0.738,0.973-0.974,1.582
		c-0.234,0.608-0.356,1.29-0.356,2.037c0,0.9,0.138,1.647,0.405,2.231C10.856,14.986,11.221,15.464,11.667,15.83z M16.9,17.484
		c0.39,0.09,0.739,0.195,1.056,0.316c0.308,0.123,0.575,0.268,0.803,0.447c0.227,0.178,0.396,0.389,0.52,0.641
		c0.121,0.252,0.178,0.551,0.178,0.925c0,0.405-0.064,0.755-0.203,1.047c-0.137,0.292-0.316,0.544-0.551,0.755
		c-0.228,0.211-0.504,0.381-0.813,0.502c-0.308,0.131-0.641,0.229-0.989,0.309V17.484z M14.921,9.509v4.933
		c-0.812-0.187-1.412-0.462-1.793-0.828c-0.39-0.365-0.576-0.877-0.576-1.55C12.544,10.613,13.339,9.761,14.921,9.509z"/>
</g>
</svg>
